
<svg width="24" height="24" viewBox="0 0 24 24" fill="none" xmlns="http://www.w3.org/2000/svg">
<path d="M14.2628 13.4013C12.4228 14.5307 9.95997 15.1124 7.46569 14.9881C5.36855 14.8865 3.64855 14.1411 2.60855 12.9157C1.69426 11.8201 1.33998 10.3745 1.57998 8.71143C1.66132 8.15874 1.82802 7.62166 2.07426 7.11896L2.10855 7.04837C2.9718 5.40595 4.25293 4.01397 5.82584 3.00942C7.39875 2.00486 9.20924 1.42236 11.0791 1.31924C12.949 1.21611 14.8138 1.59592 16.4901 2.42128C18.1663 3.24665 19.5962 4.48912 20.639 6.02641C21.6819 7.56371 22.3017 9.34285 22.4374 11.1887C22.5732 13.0346 22.2203 14.8836 21.4134 16.5538C20.6065 18.224 19.3735 19.6577 17.8356 20.714C16.2978 21.7702 14.5081 22.4126 12.6428 22.5778L12.7571 23.8738C14.8514 23.6894 16.861 22.9691 18.5878 21.7837C20.3147 20.5984 21.6993 18.9889 22.6052 17.1138C23.5111 15.2387 23.9071 13.1627 23.7542 11.0904C23.6012 9.01808 22.9046 7.02088 21.7329 5.29555C20.5613 3.57022 18.955 2.1763 17.0724 1.25111C15.1898 0.325909 13.0957 -0.0986411 10.9965 0.0192787C8.89733 0.137198 6.86544 0.79352 5.10102 1.92359C3.3366 3.05365 1.90053 4.61848 0.934264 6.4639L0.888548 6.55707C0.583083 7.1809 0.376847 7.84756 0.27712 8.53354C-0.0085945 10.5608 0.43426 12.3651 1.5914 13.7542C2.85712 15.2733 4.91712 16.1768 7.38855 16.2954C10.3971 16.4451 13.3885 15.6347 15.5114 14.1439L14.2628 13.4013Z" fill="#2041E0"/>
<path d="M16.78 14.8751C15.5829 15.9029 12.8 17.7664 8.18286 18.0205C3.01429 18.3029 0.860001 16.6427 0.840001 16.6257L0.422856 17.1339L0.842856 16.6342L0 17.6337C0.0914286 17.7099 2.15714 19.3589 7.00857 19.3589C7.40571 19.3589 7.82286 19.3589 8.25714 19.325C13.8371 19.0172 16.9029 16.6116 17.9714 15.5838L16.78 14.8751Z" fill="#2041E0"/>
<path d="M19.02 16.2191C18.3121 17.1387 17.4408 17.9233 16.4486 18.5344C12.9515 20.765 8.50289 21.053 5.3886 20.8977L5.32289 22.1994C5.84575 22.2248 6.34861 22.2361 6.83718 22.2361C15.62 22.2361 19.1686 18.2831 20.16 16.8714L19.0172 16.2079" fill="#2041E0"/>
<path d="M18.6857 11.2922C19.268 11.2922 19.74 10.8257 19.74 10.2503C19.74 9.6749 19.268 9.20844 18.6857 9.20844C18.1034 9.20844 17.6314 9.6749 17.6314 10.2503C17.6314 10.8257 18.1034 11.2922 18.6857 11.2922Z" fill="#2041E0"/>
</svg>
